<svg id="Layer_1" data-name="Layer 1" xmlns="http://www.w3.org/2000/svg" viewBox="0 0 435.24 139.47"><defs><style>.cls-1{fill:#fff;}</style></defs><title>Untitled-1</title><path class="cls-1" d="M200.68,272.83a5.92,5.92,0,0,1-4.65-1.51,21.81,21.81,0,0,0-8.25-4.41,13.63,13.63,0,0,1-5.75-3.43,20.89,20.89,0,0,0-9.48-4.89c-4.12-1-8.14-2.26-11.56-4.94a8.4,8.4,0,0,0-2-.93c-5.17-2-10-5.05-15.52-6.33a8.69,8.69,0,0,1-4.59-3c-1.92-2.1-4-4.19-7.21-4.36a12.71,12.71,0,0,1-3.25-.82,27.77,27.77,0,0,0-5.81-.75c-3.67-.41-7.56.17-11-1.57a3.46,3.46,0,0,0-2.5-.35c-3.25,1-5.93-.12-8.37-2.15-2.73-2.27-6.39-1.69-9,.06a18.11,18.11,0,0,1-2.9,1.74,3.93,3.93,0,0,1-3.43.12c-1.17-.64-2.44-1.17-3.55-1.86-1.8-1.17-1.86-3.08-1.63-4.89.29-2.26.88-4.53,1.4-6.8.29-1.22,1.34-1.8,2.27-2.38a21.15,21.15,0,0,1,12.2-3.89c1.86,0,3.55-1.05,5.47-1.05a36.94,36.94,0,0,1,6.68.64c3.6.76,7.32,1.05,11,1.63a110.06,110.06,0,0,1,15,3c3.08.87,6.16.64,9.24.46a16.56,16.56,0,0,1,8.2,1.11c1.62.75,3.6.52,5.11,1.74.87.7,1.51,1.63,2.44,2.33,3,2.38,6.69,3,10.18,4.24,2.09.76,4.24.7,6.39.93a18.69,18.69,0,0,1,9.36,3.55,68.43,68.43,0,0,1,11.21,10.52,13.76,13.76,0,0,0,7.56,4.24,3.12,3.12,0,0,1,2.44,1.63,13.26,13.26,0,0,0,2.56,2.84,3.48,3.48,0,0,1,1.1,1.75c.82,4.59,1.05,9.12-2.38,13a8.21,8.21,0,0,0-1.28,1.86C205,272,203.24,273.18,200.68,272.83Zm-56.43-46.67c-.76.06-1.57.18-2.39.23s-1.74.06-2.55.06c-1.4-.06-1.92.7-2,2a5.78,5.78,0,0,1-.41,2.21c-.93,2-.87,1.91,1.05,3.08,2.09,1.28,4.53,2.09,6,4.18a9.6,9.6,0,0,0,4.54,3.2c2.5,1,5.11,1.63,7.38,3a18.92,18.92,0,0,0,3.83,1.69,34.23,34.23,0,0,1,4.71,2.09c4.19,2.32,8.43,4.53,13.2,5.29a17.07,17.07,0,0,1,9.88,5.17,9.33,9.33,0,0,0,4.82,3,11.16,11.16,0,0,1,6.28,2.84,1.65,1.65,0,0,0,2.44-.23c2.21-2.5,1.28-5.69-1.92-6.57A4.47,4.47,0,0,1,196,254.7a3.76,3.76,0,0,0-1.92-2.09,10.35,10.35,0,0,1-4.36-3.49c-2.56-3.31-5.93-5.52-9.13-8.08s-6.33-4.42-10.52-4.07a3.21,3.21,0,0,1-2.15-.64,7.94,7.94,0,0,0-2.79-1.22c-2.26-.7-4.47-1.51-6.74-2.09a14.24,14.24,0,0,1-6.63-4A11.23,11.23,0,0,0,144.25,226.16Zm-36.56,3.2c3.19.06,3.83-.7,3.6-3.26a13.94,13.94,0,0,1,.06-2.73c.17-1.39-.47-2.27-1.8-2.32-2.74-.12-5.47-.7-8.2-.35-2.91.35-5.75.23-8.66.52a7.53,7.53,0,0,0-4.53,2.09c-1.17,1.05-1,2.15.46,2.74a8.33,8.33,0,0,0,6.57.17,5.88,5.88,0,0,1,5.93.29C103.27,227.85,105.59,229.18,107.69,229.36Zm19.18-2.27h.64c.69-.06,1.51.06,1.62-.93s-.75-1.1-1.39-1.22c-1.28-.29-2.56-.46-3.78-.7-.46-.05-1-.11-1.22.47s.23.87.64,1.16A4.38,4.38,0,0,0,126.87,227.09Zm-10.64,2.85c.52-.06,1.22.06,1.1-.64s-.87-.58-1.45-.64-1.39-.12-1.34.47C114.66,229.94,115.65,229.65,116.23,229.94Z" transform="translate(-32.35 -151)"/><path class="cls-1" d="M422.89,224.13c.17,1.22-.58,2.32-.81,3.6-.35,1.8.17,2.62,1.91,3.08,3.49.93,6.63,2.79,9.83,4.3,2.5,1.22,2.9,3.55,1.1,4.88a3.15,3.15,0,0,1-3.78-.05c-3.48-2.21-7.09-4.07-11.39-3.84a.42.42,0,0,1-.29-.06c-2.91-1.63-5.35-.11-7.91,1.05a7.55,7.55,0,0,1-2.44.75c-4.76.29-9.3,2.15-14,2.56-1.52.12-2.68,1.16-4.19,1.63-4.07,1.1-8.31.93-12.32,2.27a28,28,0,0,1-7.21,1.57,6.49,6.49,0,0,0-2.9,1.27,19.92,19.92,0,0,1-5.82,1.92,43.4,43.4,0,0,0-11.56,4.24c-5.06,2.56-9.88,5.58-15,8a8.16,8.16,0,0,0-4.36,4.12,5.45,5.45,0,0,1-4.3,3.08c-2.73.53-5.46,1.75-8.31,1.4-4.53-.52-9.07-.87-13-3.49a1.27,1.27,0,0,0-1.74.23,3.29,3.29,0,0,1-3.72.64,17.51,17.51,0,0,0-4.48-1.16,6.22,6.22,0,0,1-2.67-1c-1.22-.69-2.15-1.62-1.63-3.13a2.88,2.88,0,0,1,3.14-2c4.12.81,6-2.21,8.31-4.59,2.85-3,5.46-6.16,8.25-9.24a29,29,0,0,1,3.9-3.61c3.14-2.38,6.74-3.89,10.34-5.46s7.56-2.44,11-4.53a3,3,0,0,1,1.22-.41,46.26,46.26,0,0,0,13.43-4.65,2.6,2.6,0,0,1,1-.41c3,.06,5.76-1.28,8.72-1.45a14.38,14.38,0,0,0,4.07-.87c2.56-1,5.29-.82,7.9-1.22a78.73,78.73,0,0,0,14.07-3.84c4.42-1.51,9.07-2,13.72-2.44,4.18-.41,8.48-.58,12.61-1.39A10.1,10.1,0,0,1,420,217C421.9,218.08,423,220.58,422.89,224.13Zm-39.7,14.59c1.57.58,3-1,4.77-1.46,2.67-.69,5.34-1.39,8-2.26q5.24-1.67,10.46-3.14c3.43-1.05,6.51-2.39,8.66-5.41.58-.81,1-1.63.35-2.32-.81-.93-1.86-2-3.26-1.8-1.74.17-3.54,0-5.23.75a5.62,5.62,0,0,1-3.77.23,17.39,17.39,0,0,0-5.76-.05c-2.32.23-4.36,1.45-6.63,1.74-6.27.93-12.26,3-18.48,4.3a24.66,24.66,0,0,0-4.47,1.34,4.9,4.9,0,0,1-3.14.4,5.54,5.54,0,0,0-2.56.06c-3.89.82-7.85,1.22-11.51,2.79-.93.41-2.15.64-2.32,1.75s.87,1.62,1.68,2.2c.06.06.18.18.23.18,2.56,1.1,3.14,3.31,3.32,5.75.11,1.75.64,2.1,2.26,1.57a33.34,33.34,0,0,1,5.82-1.74c3.31-.58,6.22-2.5,9.7-2.62a18.68,18.68,0,0,0,6.11-1.45A12.71,12.71,0,0,1,383.19,238.72Zm-62.77,25.74a5.62,5.62,0,0,0,4.88-2.32,12,12,0,0,1,5.87-4.3,6.37,6.37,0,0,0,3.49-3.14c.46-.7.35-1-.47-1.45a8.17,8.17,0,0,1-3.31-2.79,38.13,38.13,0,0,0-3.89-5.12,2.86,2.86,0,0,0-4.07-.7,19,19,0,0,0-4.07,3.38,36.65,36.65,0,0,1-4.54,4.53c-1.62,1.28-3.13,2.67-2.84,4.71.29,1.86,1.39,3.66,2.21,5.4.11.24.52.35.81.47A20.24,20.24,0,0,0,320.42,264.46Zm19-24.81a5.27,5.27,0,0,0-3.19.93c-1.22.81-1,2-.58,3.19a1.47,1.47,0,0,0,1.91,1,6.41,6.41,0,0,0,3-1.74,2,2,0,0,0,.58-2.21A1.74,1.74,0,0,0,339.42,239.65Z" transform="translate(-32.35 -151)"/><path class="cls-1" d="M113.85,151a11.66,11.66,0,0,1,5.4,2.21,34.45,34.45,0,0,0,7.85,4.24c2.32.87,4.53,2.15,7,2.85,3,.87,6.28,1,9.19,2.26,3.19,1.46,6.8.93,10,2.16,4.6,1.74,8.67,4.64,12.73,7.43,4.31,2.91,8.72,5.53,14.07,6.4,4.18.7,8.54,1.22,12.26,3.6a12.91,12.91,0,0,1,4.54,4.48c1.62,2.85,4,5,6.39,7.15,2.67,2.5,6.1,3.6,9.36,5.05a5.47,5.47,0,0,0,2.5.53,6.93,6.93,0,0,1,4.65,1.45,3.75,3.75,0,0,0,2.5.46,5.83,5.83,0,0,1,3.54.88c1.46,1,1.4,2.73-.23,3.19-2.73.76-5.58,1.81-8.49.35a15.81,15.81,0,0,0-5.4-1.57,8.25,8.25,0,0,1-3.95-1.68c-2.56-1.8-5.58-2.68-8.08-4.59s-5.06-3.9-6.92-6.63a17.32,17.32,0,0,0-10.93-7.5c-5.63-1.28-11.45-2.38-16.21-6.1a6.77,6.77,0,0,0-3.49-1.57,4.16,4.16,0,0,1-2.79-1.69,19.11,19.11,0,0,0-10.81-6.56c-3.43-.76-6.8-2-10.41-2.15a13.5,13.5,0,0,1-3.13-1.11c-3.43-1.22-6.92-2.21-10.23-3.66s-6.28-3.26-9.36-4.94a18.3,18.3,0,0,1-2.68-1.51c-.75-.53-1.74-1.11-1.33-2.33A2.3,2.3,0,0,1,113.85,151Z" transform="translate(-32.35 -151)"/><path class="cls-1" d="M132.74,194.43a21.81,21.81,0,0,1,13,3.95c3.43,2.32,7.49,2.79,11.51,3.25,1.56.18,3.19.18,4.82.35a26.9,26.9,0,0,1,12.5,4.59,49.19,49.19,0,0,0,15,7.73,4.5,4.5,0,0,1,1.57.76c2.15,1.8,4.36,3.66,6.45,5.52a2,2,0,0,1-.75,3.26c-2,.64-4.25.75-5.64-.82-3.32-3.6-7.5-5.46-11.92-6.86-2.67-.87-4.42-3-6.74-4.3a8.34,8.34,0,0,0-2.15-1,2.91,2.91,0,0,1-1.69-.87c-2.26-2.67-5.4-3-8.6-3a31.66,31.66,0,0,1-8.78-1c-2.84-.75-5.57-1.86-8.36-2.85a4.77,4.77,0,0,1-2.16-1.39,10.23,10.23,0,0,0-6.68-3.08,44,44,0,0,0-10.75.35c-5.18.7-10.35,1.22-15.52,1.92-1.8.23-3.55.69-5.35,1a5.64,5.64,0,0,1-1.45.23,2,2,0,0,1-2.21-1.27c-.29-1,.58-1.57,1.34-1.92a14.85,14.85,0,0,1,4.47-1.22c6.16-.93,12.27-1.86,18.49-2.68C126.46,194.77,129.6,194.66,132.74,194.43Z" transform="translate(-32.35 -151)"/><path class="cls-1" d="M302.34,238a2.46,2.46,0,0,1-2.67-1.45c-.53-1,.23-1.81.81-2.62,1.92-2.73,5.06-4.36,6.74-7.27a22.66,22.66,0,0,1,6.46-6.62,40.41,40.41,0,0,1,5.69-3c4.36-2.2,8.66-4.47,13.2-6.33a86.79,86.79,0,0,1,10.81-3.49c3.54-.93,7.15-1.34,10.69-2.27,1.86-.46,3.78-.63,5.7-.93,2.21-.29,4.24-.75,5.23-3.13a3.92,3.92,0,0,1,2.09-1.92c3.55-1.69,6.8-3.84,10.52-5.23,2.33-.88,4.24-2.44,6.39-3.72a7.74,7.74,0,0,1,4.65-.82c1.28.06,2.45.53,2.62,1.92a2.29,2.29,0,0,1-2.09,2.5,23.47,23.47,0,0,0-7.67,2.85c-3.14,1.86-6.22,3.83-9.48,5.64a1.27,1.27,0,0,0-.58.75c-.58,3.08-3.26,3.08-5.46,3.9-6.92,2.44-14.3,2.15-21.28,4a83,83,0,0,0-13.25,4.65c-4,1.86-7.79,4.12-11.86,5.93-3.43,1.51-6.56,3.66-7.84,7.73a8.14,8.14,0,0,1-4.42,4.7,3.43,3.43,0,0,0-2.09,2.27A2.6,2.6,0,0,1,302.34,238Z" transform="translate(-32.35 -151)"/><path class="cls-1" d="M336.34,176.81c-3.25-.23-6.51-.52-9.76.24-1.4.35-2.91-.06-4.3-.12-6.22-.46-12.09,1.51-18.2,1.8a3,3,0,0,0-1.51.53c-2.15,1.39-4.3,2.84-6.51,4.12-2,1.11-3.31,2.91-4.82,4.48a34.6,34.6,0,0,1-4.07,3.6,7.35,7.35,0,0,0-2.85,2.79c-.06.12-.11.23-.17.23-2.73,1.52-4.19,4.25-6,6.57a8.59,8.59,0,0,0-1.57,2.73c-.69,2.91-3.14,3.08-5,2.45-1.75-.59-1.92-1.57-1.17-3.26,1.57-3.66,4.3-6.22,7-9,2.38-2.44,5.11-4.53,7.38-7.15,1.57-1.86,3.89-3,5.41-4.82a11.66,11.66,0,0,1,6.21-4,5.57,5.57,0,0,0,2-1c1.69-1.51,3.78-1.92,5.81-2.56,3.84-1.28,7.79-1.39,11.74-1.74a94.91,94.91,0,0,1,16.34-.12,10,10,0,0,0,3.66-.46c3.2-.93,6.39-.35,9.59-.06a2,2,0,0,1,1.92,2.21,1.85,1.85,0,0,1-2.1,1.8C342.33,176,339.37,177.05,336.34,176.81Z" transform="translate(-32.35 -151)"/><path class="cls-1" d="M151.34,259.23a140.65,140.65,0,0,1,20.22,2.68c2.62.58,4.42,2.38,6,4.41,2.21,2.79,3.66,3.32,7,2.27a3.62,3.62,0,0,1,4.71,1.92c.76,1.57.29,3.08-1.45,3.37-3,.47-5.87.7-8.84-.35a14.92,14.92,0,0,1-7.15-5.17,6.41,6.41,0,0,0-4-2.21c-6.1-1.22-12.2-2.62-18.48-2.56A24.25,24.25,0,0,0,138.49,266a6.19,6.19,0,0,1-2,.47,22.24,22.24,0,0,0-5.52,1,6,6,0,0,1-1.75.29c-.81,0-1.92.23-2.21-.82s.64-1.68,1.4-2.15a34.66,34.66,0,0,1,7.5-2.79c3.31-1,6.85-1.16,10.17-2.21A16.58,16.58,0,0,1,151.34,259.23Z" transform="translate(-32.35 -151)"/><path class="cls-1" d="M339.6,267a14.66,14.66,0,0,0,4.3-.64,69.54,69.54,0,0,1,9.07-2,6.47,6.47,0,0,0,1.74-.41c4.13-1.74,8.31-1.28,12.55-.7,2.79.35,5.53.93,8.26,1.34a15,15,0,0,0,4.82-.06,6.65,6.65,0,0,1,3.2.18,2.11,2.11,0,0,1,1.69,2.09,1.86,1.86,0,0,1-1.52,2c-3,.82-5.92,1.46-9,.64a51.45,51.45,0,0,0-12.2-2A35.09,35.09,0,0,0,351,269.29a85.59,85.59,0,0,1-14.3,2.85,2.22,2.22,0,0,1-2.5-1.63,2.13,2.13,0,0,1,.93-2.67C336.29,266.91,337.85,267,339.6,267Z" transform="translate(-32.35 -151)"/><path class="cls-1" d="M48.63,193.55a8,8,0,0,1,5,1.92,52.12,52.12,0,0,0,6.45,4.77,46.59,46.59,0,0,0,7.09,3.66c3.26,1.34,6.75,1.28,10.06,1.86a4.18,4.18,0,0,1,3,1.4,1.88,1.88,0,0,1-.11,2.73,4.19,4.19,0,0,1-4.77.87c-2.5-1.51-5.4-1.74-8.08-2.56-3.14-.93-6.16-2.09-9.18-3.25-3.2-1.22-5.64-3.37-8.14-5.58a2.7,2.7,0,0,0-2.85-.47c-.93.29-2,.76-2.61-.29a2.74,2.74,0,0,1,.46-3.31A5.76,5.76,0,0,1,48.63,193.55Z" transform="translate(-32.35 -151)"/><path class="cls-1" d="M433.87,227.15c0-2.33,2.91-3.78,5-2.38a4.27,4.27,0,0,0,5.64-.29c1.51-1.22,3.55-1.4,5.41-2,3.13-1,6-2.85,9.53-2.21a3.38,3.38,0,0,0,1.8-.52,6.78,6.78,0,0,1,5-.35,1.65,1.65,0,0,1,.64,3,7.1,7.1,0,0,1-3.08,1.63c-3.66,1.05-7.56,1.11-11.16,2.21a84.36,84.36,0,0,0-8.89,3.2,11.35,11.35,0,0,1-7.85.46A3,3,0,0,1,433.87,227.15Z" transform="translate(-32.35 -151)"/><path class="cls-1" d="M165.81,274.75a31.58,31.58,0,0,1,7.67,1.28,4,4,0,0,1,1.86,1.22c.93,1,1.63,2,.82,3.43-.59,1-2.74,1.34-3.84.52-5.17-4.12-9.88-1.27-14.53,1.05-3.49,1.74-6.74,3.95-10.06,5.93a3.28,3.28,0,0,1-1,.35,2,2,0,0,1-2.39-1.16,1.74,1.74,0,0,1,.76-2.39c2.73-1.39,4.94-3.54,7.56-5.11a33.79,33.79,0,0,1,6-3.26C161.16,275.74,163.83,275.57,165.81,274.75Z" transform="translate(-32.35 -151)"/><path class="cls-1" d="M45.26,216.8c4.19.06,8.37-.23,12.56.53,1.28.23,2.55-.29,3.83-.41a13.68,13.68,0,0,1,5.29.23c1.16.35,2.09,1,2,2.33a2.2,2.2,0,0,1-2.21,2,40.55,40.55,0,0,1-8,0c-2.27-.17-4.6-.52-6.86-.81a5.13,5.13,0,0,0-1.92.06c-1.92.58-3.78.11-5.7.11-2.79-.05-5.69-.4-8.37,1a2.12,2.12,0,0,1-3-.81c-.76-1.11-.29-2.09.7-2.79a6.16,6.16,0,0,1,4.12-1.45C40.21,216.86,42.76,216.8,45.26,216.8Z" transform="translate(-32.35 -151)"/><path class="cls-1" d="M36.31,243.25a13.8,13.8,0,0,1-1.86-.12,2.22,2.22,0,0,1-1.74-3.48A4.75,4.75,0,0,1,37,237a8.58,8.58,0,0,0,3.37-.87,76.58,76.58,0,0,1,11.68-4.42c2.21-.58,4.48.06,6.63.7a3.66,3.66,0,0,1,2.44,3c.29,1.17-.81,1.8-1.8,2.15a3.78,3.78,0,0,1-3.26-.23c-1.62-.93-3.25-.64-4.94-.17-2.09.58-4.07,1.51-6.28,1.91a12.42,12.42,0,0,0-4.7,2.33C38.93,242.32,37.76,243.54,36.31,243.25Z" transform="translate(-32.35 -151)"/><path class="cls-1" d="M448.17,206.75a19.72,19.72,0,0,1,5.87.7c1.4.34,2.56.93,2.62,2.61s-1.28,2-2.56,2.38a6.58,6.58,0,0,1-3.2.35A11.19,11.19,0,0,0,441,215.7a5.13,5.13,0,0,1-3.72,1.34c-1.11-.06-1.57-.82-2-1.63a1.78,1.78,0,0,1,.41-2.09,18.83,18.83,0,0,1,8.71-6.28A14.15,14.15,0,0,1,448.17,206.75Z" transform="translate(-32.35 -151)"/><path class="cls-1" d="M47,261.27c-1.57-.06-2.79.11-3.08-1.34s.69-2.15,1.91-2.38c4.36-.82,8-3.2,12.09-4.65a37.46,37.46,0,0,1,4.31-1.28c1.22-.23,2.55-.23,3.13,1.22s0,2.62-1.62,3.31a15.27,15.27,0,0,1-5.58,1.46,4.51,4.51,0,0,0-2.44.69C53,260.57,49.56,260.4,47,261.27Z" transform="translate(-32.35 -151)"/><path class="cls-1" d="M450,248.07a18.4,18.4,0,0,0-5.11.47c-2.27.29-4.65.46-6.51-1.28a1.74,1.74,0,0,1-.76-2,2.31,2.31,0,0,1,1.8-1.68,4.38,4.38,0,0,1,2.85.29,8.59,8.59,0,0,0,5.35.41c3.49-.76,7-.41,10.58-.47a2.06,2.06,0,0,1,2.38,1.92c.06,1.34-1.22,1.92-2.38,1.92C455.38,247.61,452.65,248,450,248.07Z" transform="translate(-32.35 -151)"/><path class="cls-1" d="M354.36,284.4a9.51,9.51,0,0,1-5.64-1.28,2.48,2.48,0,0,1-1.1-3.25c.64-1.51,3.66-2.5,4.82-1.4a7.22,7.22,0,0,0,5.64,1.8c1.05,0,2.33-.17,2.5,1.34s-.81,2.09-2,2.5A13.76,13.76,0,0,1,354.36,284.4Z" transform="translate(-32.35 -151)"/><path class="cls-1" d="M185,285.51a5.31,5.31,0,0,1-3.89,4.88,2.33,2.33,0,0,1-2.56-3.66c.41-.76.93-1.46,1.39-2.15a3.33,3.33,0,0,1,3-1.46C184.29,283.35,185.11,284.05,185,285.51Z" transform="translate(-32.35 -151)"/><path class="cls-1" d="M341.17,227a1.08,1.08,0,0,1-1.28.93c-.7-.12-1.51-.35-1.45-1.17s.87-.64,1.45-.64S341.11,226.16,341.17,227Z" transform="translate(-32.35 -151)"/></svg>